# File created by Blade
# Date/Time:  Thu Jan 22 15:49:58 2015
# Frame Rate: 120.000 fps
#------------------------------------------------------
:FULLY-SPECIFIED
:DEGREES
1508
root 3.261681 37.118979 4.751386 -3.263803 -1.938456 3.059830
RightUpLeg 11.289046 -6.531768 -6.148170
RightLeg -5.230308 -0.000000 0.000000
RightFoot -11.876975 -13.419891 16.928700
RightToeBase 14.603069 -0.000000 -0.000000
LeftUpLeg 9.621989 5.895642 1.255968
LeftLeg -2.895420 -0.000000 0.000000
LeftFoot -6.246217 6.890206 -16.792154
LeftToeBase 8.610616 -0.000000 -0.000000
Spine 2.675825 -21.204758 -6.756591
RightShoulder 1.412834 -16.061427 -19.330339
RightArm 46.535981 -13.521625 68.589516
RightForeArm 56.480514 -0.000000 128.848404
RightHand 22.310576 -0.000000 -5.876163
RightHandThumb1 -24.326973 -0.000000 -32.862282
LeftShoulder -6.793015 0.622426 42.934556
LeftArm 133.446935 0.363118 -53.384447
LeftForeArm -14.255809 -0.000000 125.701831
LeftHand -12.850416 -0.000000 -28.131645
LeftHandThumb1 -26.253704 0.000000 33.147579
Head -6.281328 50.682966 -14.036746
1509
root 3.262735 37.119114 4.747178 -3.268537 -1.917276 3.062442
RightUpLeg 11.284897 -6.545006 -6.148281
RightLeg -5.222396 -0.000000 0.000000
RightFoot -11.893339 -13.442598 16.926611
RightToeBase 14.649207 -0.000000 -0.000000
LeftUpLeg 9.621999 5.873471 1.249791
LeftLeg -2.906306 -0.000000 0.000000
LeftFoot -6.235765 6.895494 -16.812820
LeftToeBase 8.651064 -0.000000 -0.000000
Spine 2.704076 -21.194494 -6.767579
RightShoulder 1.432326 -16.042010 -19.343034
RightArm 46.509687 -13.500579 68.606386
RightForeArm 56.534226 0.000000 128.840196
RightHand 22.289223 0.000000 -5.823639
RightHandThumb1 -24.326973 -0.000000 -32.862282
LeftShoulder -6.792323 0.596298 42.927703
LeftArm 133.422367 0.376900 -53.380268
LeftForeArm -14.254896 -0.000000 125.704011
LeftHand -12.853858 -0.000000 -28.116751
LeftHandThumb1 -26.253704 0.000000 33.147579
Head -6.305604 50.642075 -14.064327
1510
root 3.263552 37.119180 4.742928 -3.273314 -1.896737 3.073220
RightUpLeg 11.257025 -6.599457 -6.168267
RightLeg -5.157263 -0.000000 0.000000
RightFoot -11.919296 -13.388695 16.922863
RightToeBase 14.639706 -0.000000 -0.000000
LeftUpLeg 9.617053 5.871758 1.238349
LeftLeg -2.904946 -0.000000 0.000000
LeftFoot -6.235256 6.887178 -16.793922
LeftToeBase 8.677373 -0.000000 -0.000000
Spine 2.739178 -21.184484 -6.795464
RightShoulder 1.439523 -16.046704 -19.345825
RightArm 46.514635 -13.497091 68.619640
RightForeArm 56.556812 0.000000 128.827962
RightHand 22.327834 -0.000000 -5.773087
RightHandThumb1 -24.326973 -0.000000 -32.862282
LeftShoulder -6.798436 0.588367 42.924940
LeftArm 133.412914 0.387842 -53.375630
LeftForeArm -14.286912 -0.000000 125.693787
LeftHand -12.827924 0.000000 -28.107694
LeftHandThumb1 -26.253704 0.000000 33.147579
Head -6.351589 50.616840 -14.099910
1511
root 3.262845 37.119367 4.737765 -3.271310 -1.874761 3.073959
RightUpLeg 11.249471 -6.574616 -6.164872
RightLeg -5.150677 -0.000000 0.000000
RightFoot -11.929981 -13.410572 16.933988
RightToeBase 14.630079 -0.000000 -0.000000
LeftUpLeg 9.605726 5.856509 1.235322
LeftLeg -2.907771 -0.000000 0.000000
LeftFoot -6.217703 6.887579 -16.789492
LeftToeBase 8.718326 -0.000000 -0.000000
Spine 2.762931 -21.171046 -6.806642
RightShoulder 1.453094 -16.034981 -19.345924
RightArm 46.494861 -13.491585 68.620637
RightForeArm 56.568895 -0.000000 128.836460
RightHand 22.288732 -0.000000 -5.726379
RightHandThumb1 -24.326973 -0.000000 -32.862282
LeftShoulder -6.796797 0.574908 42.912062
LeftArm 133.391066 0.407120 -53.362860
LeftForeArm -14.326793 -0.000000 125.683393
LeftHand -12.843295 -0.000000 -28.144424
LeftHandThumb1 -26.253704 0.000000 33.147579
Head -6.374406 50.583612 -14.129661
1512
root 3.262045 37.119128 4.732116 -3.282038 -1.848295 3.082688
RightUpLeg 11.256286 -6.568777 -6.170705
RightLeg -5.151584 -0.000000 0.000000
RightFoot -11.945389 -13.432332 16.942615
RightToeBase 14.647238 -0.000000 -0.000000
LeftUpLeg 9.603652 5.851267 1.229685
LeftLeg -2.910106 -0.000000 0.000000
LeftFoot -6.207184 6.872970 -16.807325
LeftToeBase 8.689709 -0.000000 -0.000000
Spine 2.815430 -21.162684 -6.842472
RightShoulder 1.458626 -16.035675 -19.333502
RightArm 46.506286 -13.499774 68.604395
RightForeArm 56.596449 -0.000000 128.844923
RightHand 22.269889 -0.000000 -5.739678
RightHandThumb1 -24.326973 -0.000000 -32.862282
LeftShoulder -6.796523 0.555735 42.912897
LeftArm 133.369432 0.421009 -53.350205
LeftForeArm -14.356965 0.000000 125.674330
LeftHand -12.901692 -0.000000 -28.144408
LeftHandThumb1 -26.253704 0.000000 33.147579
Head -6.423575 50.562012 -14.160652
1513
root 3.261495 37.119148 4.724289 -3.271722 -1.830664 3.078761
RightUpLeg 11.228284 -6.573924 -6.158894
RightLeg -5.140538 -0.000000 0.000000
RightFoot -11.950974 -13.436727 16.934467
RightToeBase 14.668457 -0.000000 -0.000000
LeftUpLeg 9.577179 5.831664 1.225732
LeftLeg -2.906705 -0.000000 0.000000
LeftFoot -6.219414 6.911754 -16.843066
LeftToeBase 8.718335 -0.000000 -0.000000
Spine 2.838452 -21.145924 -6.844751
RightShoulder 1.473426 -16.027483 -19.326272
RightArm 46.505243 -13.518001 68.576396
RightForeArm 56.585488 -0.000000 128.852360
RightHand 22.259069 -0.000000 -5.731860
RightHandThumb1 -24.326973 -0.000000 -32.862282
LeftShoulder -6.784594 0.510002 42.903239
LeftArm 133.318986 0.455631 -53.330995
LeftForeArm -14.382581 0.000000 125.660676
LeftHand -12.926736 0.000000 -28.141909
LeftHandThumb1 -26.253704 0.000000 33.147579
Head -6.462437 50.523030 -14.205795
1514
root 3.261453 37.118818 4.718523 -3.267810 -1.810187 3.078948
RightUpLeg 11.222473 -6.561806 -6.158560
RightLeg -5.138241 -0.000000 0.000000
RightFoot -11.962247 -13.462326 16.958911
RightToeBase 14.687079 -0.000000 -0.000000
LeftUpLeg 9.563365 5.813074 1.228902
LeftLeg -2.911245 -0.000000 0.000000
LeftFoot -6.200704 6.890677 -16.790865
LeftToeBase 8.690503 -0.000000 -0.000000
Spine 2.862839 -21.130413 -6.853755
RightShoulder 1.480511 -16.011532 -19.309454
RightArm 46.502812 -13.542601 68.545306
RightForeArm 56.582672 -0.000000 128.841952
RightHand 22.219099 -0.000000 -5.704086
RightHandThumb1 -24.326973 -0.000000 -32.862282
LeftShoulder -6.780590 0.509433 42.884384
LeftArm 133.295829 0.465573 -53.303427
LeftForeArm -14.389947 -0.000000 125.643780
LeftHand -12.936588 0.000000 -28.103246
LeftHandThumb1 -26.253704 0.000000 33.147579
Head -6.475628 50.499831 -14.232114
1515
root 3.262477 37.119071 4.716179 -3.282537 -1.780347 3.084367
RightUpLeg 11.239708 -6.597437 -6.171987
RightLeg -5.134747 -0.000000 0.000000
RightFoot -11.955826 -13.451116 16.948131
RightToeBase 14.651274 -0.000000 -0.000000
LeftUpLeg 9.574489 5.795204 1.217506
LeftLeg -2.915660 -0.000000 0.000000
LeftFoot -6.202970 6.897990 -16.844121
LeftToeBase 8.689904 -0.000000 -0.000000
Spine 2.906449 -21.124864 -6.876441
RightShoulder 1.497265 -16.028588 -19.292079
RightArm 46.521378 -13.552207 68.504852
RightForeArm 56.654233 -0.000000 128.833473
RightHand 22.183327 -0.000000 -5.649216
RightHandThumb1 -24.326973 -0.000000 -32.862282
LeftShoulder -6.792008 0.502013 42.859611
LeftArm 133.262397 0.485067 -53.271202
LeftForeArm -14.398279 0.000000 125.619535
LeftHand -12.982159 -0.000000 -28.040116
LeftHandThumb1 -26.253704 0.000000 33.147579
Head -6.476964 50.489970 -14.243688
1516
root 3.262934 37.118711 4.711042 -3.282417 -1.762483 3.085089
RightUpLeg 11.233224 -6.649367 -6.168262
RightLeg -5.137412 -0.000000 0.000000
RightFoot -11.970603 -13.478348 16.951897
RightToeBase 14.692261 -0.000000 -0.000000
LeftUpLeg 9.567487 5.768561 1.218527
LeftLeg -2.920953 -0.000000 0.000000
LeftFoot -6.186178 6.873334 -16.801094
LeftToeBase 8.735298 -0.000000 -0.000000
Spine 2.933326 -21.113701 -6.883578
RightShoulder 1.520664 -15.998585 -19.286826
RightArm 46.503684 -13.601385 68.481663
RightForeArm 56.697656 -0.000000 128.811170
RightHand 22.162757 -0.000000 -5.601142
RightHandThumb1 -24.326973 -0.000000 -32.862282
LeftShoulder -6.792017 0.496696 42.836467
LeftArm 133.203780 0.482333 -53.237455
LeftForeArm -14.373266 -0.000000 125.607545
LeftHand -12.953305 -0.000000 -27.869242
LeftHandThumb1 -26.253704 0.000000 33.147579
Head -6.480916 50.491063 -14.273334
